<?xml version="1.0" encoding="UTF-8" standalone="no"?>
<svg width="456" height="456" viewBox="0 0 456 456" version="1.1" xmlns="http://www.w3.org/2000/svg">
  <!-- Eraser cap -->
  <rect x="193" y="62" width="70" height="34" rx="10" fill="white" opacity="0.75"/>
  <!-- Ferrule -->
  <rect x="193" y="92" width="70" height="16" fill="white" opacity="0.50"/>
  <!-- Pencil body -->
  <rect x="193" y="105" width="70" height="186" fill="white"/>
  <!-- Tip triangle -->
  <polygon points="193,291 263,291 228,357" fill="white" opacity="0.88"/>
  <!-- Lead dot -->
  <circle cx="228" cy="358" r="7" fill="white" opacity="0.60"/>
  <!-- Line texture on body -->
  <rect x="210" y="130" width="36" height="3" rx="1.5" fill="#4F46E5" opacity="0.18"/>
  <rect x="210" y="150" width="36" height="3" rx="1.5" fill="#4F46E5" opacity="0.18"/>
  <rect x="210" y="170" width="36" height="3" rx="1.5" fill="#4F46E5" opacity="0.18"/>
  <rect x="210" y="190" width="36" height="3" rx="1.5" fill="#4F46E5" opacity="0.18"/>
  <rect x="210" y="210" width="36" height="3" rx="1.5" fill="#4F46E5" opacity="0.18"/>
  <rect x="210" y="230" width="36" height="3" rx="1.5" fill="#4F46E5" opacity="0.18"/>
  <rect x="210" y="250" width="36" height="3" rx="1.5" fill="#4F46E5" opacity="0.18"/>
  <rect x="210" y="270" width="28" height="3" rx="1.5" fill="#4F46E5" opacity="0.18"/>
</svg>
